<?xml version="1.0" standalone="no"?>
<!DOCTYPE svg PUBLIC "-//W3C//DTD SVG 20010904//EN"
 "http://www.w3.org/TR/2001/REC-SVG-20010904/DTD/svg10.dtd">
<svg version="1.0" xmlns="http://www.w3.org/2000/svg"
 width="1024.000000pt" height="1024.000000pt" viewBox="0 0 1024.000000 1024.000000"
 preserveAspectRatio="xMidYMid meet">
<metadata>
Created by potrace 1.14, written by Peter Selinger 2001-2017
</metadata>
<g transform="translate(0.000000,1024.000000) scale(0.100000,-0.100000)"
fill="#000000" stroke="none">
<path d="M0 10168 l1 -73 36 40 c20 22 53 55 72 72 l36 33 -72 0 -73 0 0 -72z"/>
<path d="M9200 9469 c-242 -22 -745 -104 -813 -133 -18 -7 -50 -31 -73 -54
-34 -35 -45 -57 -73 -149 -19 -59 -37 -112 -41 -118 -4 -5 -24 -57 -44 -115
-62 -173 -146 -401 -173 -470 -14 -36 -42 -112 -63 -170 -21 -58 -68 -186
-105 -285 -37 -99 -72 -196 -79 -215 -24 -66 -165 -435 -206 -540 -22 -58 -56
-145 -74 -195 -58 -154 -275 -700 -503 -1265 -41 -102 -103 -255 -138 -340
-34 -85 -109 -267 -165 -405 -56 -137 -130 -320 -165 -405 -85 -211 -154 -379
-169 -415 -8 -16 -48 -115 -91 -220 -104 -257 -143 -350 -171 -412 -13 -28
-24 -55 -24 -59 0 -4 -24 -61 -54 -128 -30 -67 -93 -211 -141 -321 -48 -110
-98 -224 -111 -253 -13 -29 -35 -78 -48 -110 -13 -31 -41 -93 -61 -137 -136
-293 -339 -736 -402 -875 -41 -91 -86 -190 -100 -220 -14 -30 -57 -129 -95
-220 -39 -91 -80 -187 -93 -215 -20 -45 -84 -203 -160 -400 -79 -202 -168
-458 -180 -514 -9 -41 -11 -71 -5 -87 l10 -24 736 0 736 0 40 43 c114 122 179
259 375 782 8 22 24 60 34 85 10 25 41 106 69 180 28 74 85 223 127 330 42
107 96 247 120 310 25 63 62 158 83 210 21 53 59 149 83 215 46 121 126 327
350 895 36 91 82 208 102 260 21 52 55 140 77 195 22 55 57 147 78 205 21 58
85 224 143 370 58 146 131 330 162 410 31 80 63 159 70 175 16 35 189 471 265
665 67 172 143 366 235 600 40 102 81 208 90 235 10 28 24 57 32 66 7 8 13 24
13 35 0 10 21 69 46 129 25 61 61 151 79 200 19 50 68 180 110 290 42 110 92
241 110 290 19 50 55 144 80 210 25 66 61 161 79 210 150 402 235 633 282 765
31 85 75 209 98 275 24 66 74 212 111 325 60 178 69 215 69 280 0 62 -4 83
-24 119 -62 109 -169 135 -450 110z m24 -451 c-17 -56 -87 -256 -174 -493
-126 -343 -161 -437 -198 -535 -22 -58 -61 -161 -85 -230 -42 -115 -268 -714
-337 -890 -16 -41 -46 -118 -66 -170 -20 -52 -44 -113 -54 -135 -10 -22 -38
-96 -63 -165 -26 -69 -69 -183 -97 -255 -28 -71 -59 -152 -69 -180 -10 -27
-44 -113 -75 -190 -32 -77 -78 -194 -102 -260 -25 -66 -105 -271 -179 -455
-73 -184 -153 -387 -178 -450 -66 -172 -136 -350 -233 -595 -47 -121 -101
-258 -119 -305 -18 -47 -50 -128 -70 -180 -20 -52 -62 -158 -92 -235 -30 -77
-64 -164 -74 -192 -10 -29 -43 -115 -74 -190 -31 -76 -62 -154 -70 -173 -7
-19 -57 -147 -111 -285 -86 -222 -134 -342 -202 -510 -11 -27 -39 -97 -61
-155 -84 -222 -153 -398 -187 -477 -19 -45 -34 -84 -34 -87 0 -6 -188 -501
-252 -661 -47 -121 -106 -223 -150 -261 -76 -64 -227 -107 -436 -124 -143 -12
-359 -13 -366 -2 -5 8 70 226 99 287 8 17 27 67 43 110 17 44 62 159 102 255
40 96 82 200 95 230 12 30 29 71 38 90 8 19 52 116 96 215 44 99 109 243 144
320 36 77 90 196 122 265 31 69 79 171 106 228 27 56 49 104 49 107 0 2 18 43
40 90 22 48 65 144 96 213 31 70 64 145 75 168 10 23 61 142 114 265 53 123
118 274 145 334 27 61 65 151 85 200 20 50 47 115 60 145 13 30 51 123 85 205
34 83 79 191 100 240 49 115 155 377 232 570 32 83 74 186 93 230 19 44 96
233 171 420 237 592 278 694 468 1180 58 149 113 283 121 299 9 16 25 56 36
90 21 62 56 153 195 506 42 107 96 247 119 310 23 63 72 194 108 290 62 163
98 263 213 580 122 339 128 353 160 362 32 9 428 75 484 81 19 2 56 5 82 5
l47 2 -15 -52z"/>
<path d="M1190 8934 c-312 -38 -638 -197 -849 -414 -153 -157 -249 -296 -311
-450 l-30 -72 0 -692 0 -691 24 -58 c68 -165 234 -379 386 -498 263 -205 564
-302 940 -303 293 0 516 50 755 170 50 25 99 53 110 63 11 9 45 33 75 53 30
21 96 77 145 125 247 242 396 602 426 1030 43 599 -116 1033 -496 1356 -101
86 -170 133 -296 201 -223 120 -434 176 -684 181 -88 2 -176 1 -195 -1z m442
-432 c409 -107 737 -421 833 -797 21 -84 37 -230 31 -290 -3 -27 -8 -83 -11
-123 -23 -303 -129 -619 -266 -790 -87 -109 -262 -223 -434 -281 -125 -43
-236 -62 -400 -67 -144 -5 -172 -3 -280 19 -146 30 -255 71 -360 136 -233 144
-372 349 -460 676 -22 82 -31 389 -16 520 16 132 53 275 100 383 123 284 379
513 668 597 223 65 392 70 595 17z"/>
<path d="M1260 7803 c-137 -21 -244 -76 -347 -179 -87 -87 -136 -168 -169
-280 -23 -78 -23 -236 0 -324 55 -211 209 -378 409 -447 73 -25 96 -28 207
-27 107 0 136 4 202 26 147 49 288 169 356 303 59 115 66 149 66 295 0 120 -3
143 -26 208 -93 259 -332 435 -587 431 -47 -1 -97 -3 -111 -6z m181 -407 c87
-36 139 -108 147 -201 6 -79 -10 -129 -57 -178 -52 -56 -102 -78 -175 -80 -52
-1 -71 4 -110 27 -86 50 -133 143 -120 234 9 65 26 101 65 141 65 66 171 90
250 57z"/>
<path d="M5395 8926 c-221 -37 -376 -94 -560 -204 -363 -218 -618 -624 -680
-1082 -20 -144 -19 -472 1 -609 22 -151 69 -331 115 -438 21 -51 39 -95 39
-98 0 -13 121 -198 162 -246 136 -165 334 -308 538 -389 179 -71 357 -103 580
-104 177 0 277 12 433 50 386 96 711 345 881 673 161 311 228 678 197 1076
-19 237 -51 362 -141 550 -165 343 -537 652 -930 771 -181 54 -472 77 -635 50z
m360 -401 c133 -22 229 -51 330 -100 114 -56 134 -68 225 -136 197 -146 342
-362 408 -609 23 -86 22 -321 -1 -485 -59 -405 -195 -684 -407 -833 -308 -215
-770 -274 -1131 -143 -153 56 -305 159 -398 271 -205 246 -290 599 -251 1040
28 314 181 606 405 774 253 190 539 267 820 221z"/>
<path d="M5560 7813 c-139 -20 -210 -41 -284 -85 -79 -48 -132 -94 -179 -156
-87 -113 -125 -215 -134 -358 -25 -430 347 -748 772 -659 83 17 194 70 263
124 67 53 145 162 182 254 67 168 60 370 -19 525 -63 123 -167 228 -281 283
-99 48 -251 82 -320 72z m113 -414 c46 -12 112 -75 138 -132 80 -176 -105
-384 -287 -323 -28 9 -69 35 -96 59 -108 100 -98 279 21 361 79 55 122 62 224
35z"/>
<path d="M8945 4770 c-466 -72 -717 -333 -864 -895 -122 -471 -81 -974 106
-1290 50 -86 173 -217 258 -277 124 -88 315 -168 510 -213 61 -14 262 -35 335
-35 187 1 463 64 570 130 8 5 40 24 70 41 67 39 210 181 268 267 l42 63 0 843
0 843 -29 44 c-113 168 -353 332 -606 414 -171 56 -505 89 -660 65z m338 -405
c398 -53 625 -235 714 -573 23 -88 26 -115 25 -287 0 -216 -16 -349 -63 -506
-87 -292 -224 -447 -459 -515 -91 -26 -352 -27 -460 -1 -196 46 -363 136 -465
250 -50 55 -78 103 -118 207 -35 91 -35 90 -51 237 -28 246 12 537 105 772
106 265 260 393 504 421 108 11 151 11 268 -5z"/>
<path d="M9040 3702 c-72 -21 -157 -104 -183 -177 -21 -62 -22 -176 -1 -237
19 -58 73 -120 132 -155 38 -22 60 -28 131 -31 75 -3 91 0 128 20 61 33 130
103 161 162 23 44 27 63 27 141 0 101 -20 155 -79 209 -77 71 -211 100 -316
68z"/>
<path d="M1485 4542 c-105 -50 -165 -139 -165 -246 0 -83 31 -263 70 -401 102
-367 312 -769 530 -1020 89 -101 276 -279 343 -324 157 -106 216 -141 320
-191 180 -85 314 -127 525 -165 118 -22 470 -16 602 9 624 120 1145 525 1445
1126 85 169 95 193 154 357 106 296 158 610 117 707 -37 89 -138 156 -235 156
-29 0 -173 -13 -320 -30 -340 -38 -648 -66 -876 -81 -236 -15 -894 -16 -1110
0 -362 25 -455 32 -590 47 -182 18 -463 52 -593 70 -138 19 -148 18 -217 -14z
m515 -412 c308 -36 550 -59 740 -70 292 -18 779 -27 970 -19 496 23 631 31
700 39 41 6 181 21 310 35 129 14 254 28 278 31 40 6 42 5 42 -19 0 -34 -43
-178 -86 -290 -89 -232 -113 -283 -203 -437 -31 -52 -61 -104 -66 -115 -19
-36 -80 -40 -238 -16 -471 72 -990 96 -1498 71 -228 -12 -554 -42 -699 -65
-52 -8 -102 -15 -111 -15 -42 0 -185 241 -287 485 -43 101 -99 276 -126 389
l-7 29 53 -7 c29 -3 132 -15 228 -26z m1268 -1257 l2 -293 -36 0 c-47 0 -212
34 -294 61 -148 48 -285 120 -435 228 -97 70 -225 188 -225 207 0 7 33 16 83
23 45 7 96 14 112 17 69 11 336 34 405 34 41 1 93 5 115 10 22 4 92 7 155 6
l115 -1 3 -292z m699 266 c342 -31 523 -59 523 -80 0 -6 -63 -63 -159 -145
-119 -101 -368 -234 -526 -279 -116 -34 -171 -44 -272 -52 l-83 -6 0 298 0
298 155 -7 c85 -4 248 -16 362 -27z"/>
<path d="M10080 80 l0 -80 80 0 80 0 0 80 0 80 -80 0 -80 0 0 -80z"/>
</g>
</svg>
